<?xml version="1.0" encoding="iso-8859-1"?>
<!-- Generator: Adobe Illustrator 18.0.0, SVG Export Plug-In . SVG Version: 6.00 Build 0)  -->
<!DOCTYPE svg PUBLIC "-//W3C//DTD SVG 1.1//EN" "http://www.w3.org/Graphics/SVG/1.1/DTD/svg11.dtd">
<svg version="1.1" id="Capa_1" xmlns="http://www.w3.org/2000/svg" xmlns:xlink="http://www.w3.org/1999/xlink" x="0px" y="0px"
	 viewBox="0 0 254.451 254.451" style="enable-background:new 0 0 254.451 254.451;" xml:space="preserve">
<g>
	<path d="M209.029,0H45.423C42.925,0,40.9,2.025,40.9,4.523v245.405c0,2.499,2.024,4.523,4.522,4.523h163.606
		c2.498,0,4.522-2.025,4.522-4.523V4.523C213.551,2.025,211.526,0,209.029,0z M49.945,11.01l72.758,26.817v178.796l-72.758,26.817
		V11.01z M204.506,245.406H70.77l58.02-21.385c1.778-0.655,2.958-2.35,2.958-4.243V34.674c0-1.894-1.181-3.588-2.958-4.244
		L70.771,9.045h133.735V245.406z"/>
	<path d="M108.019,111.545c-6.447,0-11.498,6.888-11.498,15.682c0,8.793,5.051,15.682,11.498,15.682
		c6.448,0,11.498-6.888,11.498-15.682C119.517,118.433,114.467,111.545,108.019,111.545z M108.018,133.861
		c-0.589-0.146-2.452-2.438-2.452-6.634c0-4.196,1.863-6.487,2.452-6.635c0.59,0.149,2.454,2.444,2.454,6.635
		C110.472,131.417,108.608,133.712,108.018,133.861z"/>
</g>
<g>
</g>
<g>
</g>
<g>
</g>
<g>
</g>
<g>
</g>
<g>
</g>
<g>
</g>
<g>
</g>
<g>
</g>
<g>
</g>
<g>
</g>
<g>
</g>
<g>
</g>
<g>
</g>
<g>
</g>
</svg>
